<?xml version="1.0" encoding="utf-8"?>
<!-- Generator: Adobe Illustrator 21.1.0, SVG Export Plug-In . SVG Version: 6.00 Build 0)  -->
<svg version="1.1" id="Layer_1" xmlns="http://www.w3.org/2000/svg" xmlns:xlink="http://www.w3.org/1999/xlink" x="0px" y="0px"
	 viewBox="0 0 500 100" enable-background="new 0 0 500 100" xml:space="preserve">
<path fill="#010101" d="M45.6,21.8H4.3c-1.7,0-1.9,1.4-1.9,3.2s0.2,3.2,1.9,3.2h41.2c1.8,0,1.9-1.4,1.9-3.2S47.4,21.8,45.6,21.8z
	 M45.6,34.6H4.3c-1.8,0-1.9,1.4-1.9,3.2c0,1.8,0.2,3.2,1.9,3.2h41.2c1.8,0,1.9-1.4,1.9-3.2C47.4,36.1,47.4,34.6,45.6,34.6z
	 M4.3,15.4h41.2c1.8,0,1.9-1.4,1.9-3.2s-0.2-3.2-1.9-3.2H4.3c-1.8,0-1.9,1.4-1.9,3.2S2.6,15.4,4.3,15.4z"/>
<path fill="#010101" d="M96.5,40.6L85.7,29.8c1.6-2.7,2.5-5.8,2.5-9.2C88.3,11,79.9,2.5,70.1,2.5s-17.6,7.9-17.6,17.6
	S61,38.3,70.7,38.3c3.2,0,6.3-0.9,8.9-2.4l10.8,10.8c1.1,1.1,2.8,1.1,3.9,0l2.7-2.7C97.9,43,97.6,41.6,96.5,40.6z M57.9,20.1
	c0-6.7,5.5-12.2,12.2-12.2s12.8,6,12.8,12.8s-5.5,12.2-12.2,12.2C63.9,32.8,57.9,26.9,57.9,20.1z"/>
<path fill="#010101" d="M119.4,3.7c1.6,1.6,17.5,18.2,17.5,18.2c0.9,0.8,1.3,2,1.3,3.1c0,1.1-0.5,2.3-1.3,3.1
	c0,0-15.8,16.7-17.5,18.2c-1.6,1.6-4.5,1.7-6.3,0c-1.7-1.7-1.9-4.1,0-6.1L127.7,25L113.1,9.9c-1.9-2.1-1.7-4.4,0-6.1
	C114.9,2,117.8,2.1,119.4,3.7z"/>
<path fill="#010101" d="M228.4,28.4c-4.4,4.4-9.6,8.7-11.6,6.7c-2.9-2.9-4.7-5.5-11.2-0.3c-6.4,5.1-1.5,8.7,1.4,11.5
	c3.2,3.2,15.4,0.2,27.5-11.9c12-12,15.1-24.2,11.8-27.4c-2.8-2.8-6.3-7.8-11.5-1.4s-2.6,8.2,0.3,11.2
	C237.2,18.9,232.9,24,228.4,28.4z"/>
<path fill="#010101" d="M186.9,3.7c1.7,1.7,1.9,4.1,0,6.1L172.3,25l14.6,15.1c1.9,2.1,1.7,4.4,0,6.1c-1.7,1.7-4.7,1.6-6.3,0
	c-1.6-1.6-17.5-18.2-17.5-18.2c-0.9-0.8-1.3-2-1.3-3.1c0-1.1,0.5-2.3,1.3-3.1c0,0,15.8-16.7,17.5-18.2C182.2,2.1,185.1,2,186.9,3.7z
	"/>
<path fill="#010101" d="M269.5,47.5c-1.4,0-2.7-0.6-3.6-1.8l-11.5-15.2c-1.5-2-1.1-4.8,0.9-6.3c2-1.5,4.8-1.1,6.3,0.9l7.6,10
	l19-30.5c1.3-2.1,4-2.7,6.2-1.4c2.1,1.3,2.8,4,1.4,6.2l-22.4,36c-0.8,1.3-2.2,2.1-3.6,2.1C269.7,47.5,269.6,47.5,269.5,47.5z"/>
<path fill="#010101" d="M302.5,4.8h45L325,45.3L302.5,4.8z"/>
<path fill="#010101" d="M393.8,45.9c-2.1,2.1-5.3,2.1-7.4,0L375,32.8l-11.4,13.1c-2.1,2.1-5.3,2.1-7.4,0s-2.1-5.3,0-7.4L368.2,25
	l-11.9-13.6c-2.1-2.1-2.1-5.3,0-7.4c2.1-2.1,5.3-2.1,7.4,0L375,17.2l11.4-13.1c2.1-2.1,5.3-2.1,7.4,0c2.1,2.1,2.1,5.3,0,7.4
	L381.8,25l11.9,13.5C395.8,40.6,395.8,43.9,393.8,45.9z"/>
<path fill="#010101" d="M441.9,2.5h-33.7c-3.1,0-5.7,2.5-5.7,5.7v33.7c0,3.1,2.5,5.7,5.7,5.7h33.7c3.1,0,5.7-2.5,5.7-5.7V8.2
	C447.5,5.1,444.9,2.5,441.9,2.5z M439,27.8h-11.2V39h-5.7V27.8h-11.2v-5.7h11.2V11h5.7v11.2H439V27.8z"/>
<path fill="#010101" d="M475,19.6c-3,0-5.4,2.4-5.4,5.4s2.4,5.4,5.4,5.4s5.4-2.4,5.4-5.4S478,19.6,475,19.6z M457.9,19.6
	c-3,0-5.4,2.4-5.4,5.4s2.4,5.4,5.4,5.4c3,0,5.4-2.4,5.4-5.4S460.9,19.6,457.9,19.6z M492.1,19.6c-3,0-5.4,2.4-5.4,5.4
	s2.4,5.4,5.4,5.4c3,0,5.4-2.4,5.4-5.4S495.1,19.6,492.1,19.6z"/>
<path fill="#010101" d="M19.9,56.9c-2.3,1.7-3,4.4-2.8,5.8c0.2,1.8,0.5,4,0.5,4s-0.7,0.4-0.7,2c0.3,3.9,1.5,2.2,1.8,4
	c0.6,4.1,2.2,3.4,2.2,5.7c0,3.8-1.5,5.5-6.4,7.6c-4.9,2.1-9.9,4.7-9.9,9.3v2.2h40.9v-2.2c0-4.6-5-7.2-9.8-9.3
	c-4.9-2.1-6.4-3.9-6.4-7.6c0-2.2,1.4-1.5,2.2-5.7c0.3-1.7,1.5,0,1.8-4c0-1.5-0.7-2-0.7-2s0.4-2.3,0.5-4c0.2-1.9-0.9-5.8-5.2-7
	c-0.7-0.8-1.3-2,1.1-3.2C23.7,52.3,22.6,54.9,19.9,56.9z"/>
<path fill="#010101" d="M75,62.4c-14.8,0-22.5,10.9-22.5,12.6S60.2,87.6,75,87.6S97.5,76.7,97.5,75S89.8,62.4,75,62.4z M75,84.7
	c-5.5,0-10-4.3-10-9.7s4.5-9.7,10-9.7s10,4.4,10,9.7S80.5,84.7,75,84.7z M75,75c-0.9-1,1.5-4.9,0-4.9c-2.8,0-5,2.2-5,4.9
	s2.3,4.9,5,4.9s5-2.2,5-4.9C80,73.7,75.8,75.8,75,75z"/>
</svg>
