<?xml version="1.0" encoding="utf-8"?>
<!-- Generator: Adobe Illustrator 21.1.0, SVG Export Plug-In . SVG Version: 6.00 Build 0)  -->
<svg version="1.1" id="Layer_1" xmlns="http://www.w3.org/2000/svg" xmlns:xlink="http://www.w3.org/1999/xlink" x="0px" y="0px"
	 viewBox="0 0 1000 1000" enable-background="new 0 0 1000 1000" xml:space="preserve">
<g>
	<path d="M671.4,328.6V85.7c0-47.3-38.4-85.7-85.7-85.7H328.6v261.5l151.3,151.3c22.2,22.2,28.6,58.2,5.6,86.4
		c-28.2,23-64.2,16.6-86.4-5.6L234,328.6H0v257.1c0,47.3,38.4,85.7,85.7,85.7h242.9v242.9c0,47.3,38.4,85.7,85.7,85.7h257.1V757.1
		c0-47.3,38.4-85.7,85.7-85.7H1000V414.3c0-47.3-38.4-85.7-85.7-85.7H671.4z"/>
	<circle cx="450.8" cy="466.4" r="28.6"/>
</g>
</svg>
